<svg id="svg" version="1.1" xmlns="http://www.w3.org/2000/svg" xmlns:xlink="http://www.w3.org/1999/xlink" width="400" height="400" viewBox="0, 0, 400,400"><g id="svgg"><path id="path0" d="M0.000 200.000 L 0.000 400.000 200.000 400.000 L 400.000 400.000 400.000 200.000 L 400.000 0.000 200.000 0.000 L 0.000 0.000 0.000 200.000 M218.600 28.175 C 223.858 28.797,225.670 29.126,235.500 31.238 C 344.134 54.581,402.494 175.637,353.401 275.800 C 294.808 395.348,128.899 406.674,54.579 296.200 C -3.122 210.432,27.471 92.724,119.600 46.028 C 137.675 36.866,159.578 30.196,178.000 28.244 C 181.410 27.882,184.830 27.518,185.600 27.434 C 189.434 27.017,213.357 27.554,218.600 28.175 " stroke="none" fill="#fc5c5c" fill-rule="evenodd"></path><path id="path1" d="M65.067 175.467 C 63.391 177.142,65.213 180.835,68.000 181.411 C 70.054 181.836,69.988 181.234,69.988 199.600 C 69.988 218.417,70.156 217.217,67.410 217.929 C 64.959 218.565,64.766 218.846,64.896 221.600 L 65.000 223.800 74.200 223.800 L 83.400 223.800 83.520 221.720 C 83.677 219.007,82.891 218.169,79.833 217.787 L 77.600 217.508 77.600 203.354 C 77.600 195.569,77.742 189.200,77.916 189.200 C 78.090 189.200,78.721 190.145,79.318 191.300 C 80.390 193.374,82.201 196.761,85.575 203.000 C 86.527 204.760,87.936 207.370,88.706 208.800 C 93.008 216.792,93.192 217.059,94.782 217.667 C 97.893 218.856,98.947 217.899,102.997 210.200 C 104.270 207.780,105.744 205.016,106.272 204.057 C 106.800 203.098,108.240 200.398,109.472 198.057 C 115.364 186.860,114.830 186.338,114.705 203.174 L 114.600 217.330 112.030 217.854 C 108.979 218.476,108.761 218.736,108.896 221.600 L 109.000 223.800 118.200 223.800 L 127.400 223.800 127.517 221.800 C 127.667 219.248,127.077 218.448,124.574 217.813 L 122.600 217.311 122.600 199.582 L 122.600 181.852 124.592 181.344 C 127.106 180.703,127.667 179.947,127.517 177.400 L 127.400 175.400 120.956 175.290 C 113.233 175.159,113.813 174.840,110.589 181.000 C 109.322 183.420,107.798 186.300,107.202 187.400 C 106.606 188.500,105.165 191.200,104.000 193.400 C 102.835 195.600,101.389 198.300,100.788 199.400 C 98.684 203.248,96.800 207.097,96.800 207.547 C 96.800 208.823,95.864 207.571,93.857 203.608 C 92.634 201.193,91.111 198.268,90.472 197.108 C 88.470 193.473,86.989 190.733,84.793 186.600 C 80.522 178.566,79.152 176.190,78.506 175.700 C 77.802 175.166,65.580 174.954,65.067 175.467 M150.667 175.467 C 149.064 177.069,150.812 180.659,153.504 181.295 L 155.608 181.791 155.504 199.551 L 155.400 217.312 153.426 217.813 C 150.923 218.448,150.333 219.248,150.483 221.800 L 150.600 223.800 161.800 223.925 C 183.430 224.165,190.694 221.234,195.790 210.206 C 202.697 195.261,194.085 178.810,177.680 175.613 C 175.369 175.163,151.102 175.031,150.667 175.467 M180.442 183.701 C 191.485 189.124,192.012 208.988,181.272 215.028 C 178.633 216.512,176.515 216.841,170.400 216.718 L 164.600 216.600 164.496 199.474 L 164.391 182.348 171.296 182.474 C 177.892 182.594,178.300 182.649,180.442 183.701 M212.730 189.379 C 201.907 191.751,196.381 204.150,201.330 214.960 C 206.831 226.975,225.697 227.493,231.424 215.786 C 238.515 201.294,227.750 186.088,212.730 189.379 M315.600 189.388 C 312.818 190.185,311.925 190.614,310.232 191.968 C 308.416 193.419,307.991 193.389,307.471 191.775 C 306.767 189.589,306.705 189.570,300.842 189.689 L 295.400 189.800 295.276 191.742 C 295.153 193.679,295.892 195.197,296.962 195.202 C 297.203 195.203,298.078 195.393,298.906 195.623 L 300.413 196.041 300.306 206.677 L 300.200 217.312 298.226 217.813 C 295.723 218.448,295.133 219.248,295.283 221.800 L 295.400 223.800 304.400 223.800 L 313.400 223.800 313.518 221.564 C 313.656 218.948,313.299 218.504,310.478 217.788 L 308.600 217.312 308.492 208.190 C 308.386 199.188,308.397 199.055,309.292 198.094 C 311.903 195.294,316.979 194.323,319.641 196.115 C 322.115 197.781,322.179 198.140,322.400 211.600 L 322.600 223.800 328.800 223.800 L 335.000 223.800 335.119 221.288 L 335.239 218.775 333.832 218.188 C 333.059 217.864,331.970 217.600,331.413 217.600 L 330.400 217.600 330.386 209.300 C 330.368 198.476,329.768 195.517,326.966 192.415 C 324.159 189.308,319.867 188.164,315.600 189.388 M235.475 189.859 C 233.990 191.344,235.613 194.906,238.000 195.402 C 239.947 195.806,240.247 196.136,241.022 198.724 C 241.397 199.976,242.201 202.530,242.808 204.400 C 243.416 206.270,244.849 210.770,245.991 214.400 C 247.134 218.030,248.302 221.630,248.588 222.400 L 249.108 223.800 252.203 223.918 C 256.297 224.073,256.329 224.037,258.825 216.260 C 262.659 204.317,263.074 203.007,263.625 201.100 C 263.927 200.055,264.276 199.200,264.400 199.200 C 264.524 199.200,264.864 200.055,265.155 201.100 C 265.446 202.145,266.008 203.990,266.404 205.200 C 267.106 207.349,267.559 208.812,270.051 217.000 C 272.251 224.230,272.153 224.132,276.946 223.920 L 279.674 223.800 280.992 219.800 C 281.716 217.600,283.071 213.370,284.001 210.400 C 284.932 207.430,286.212 203.401,286.847 201.447 C 287.481 199.493,288.000 197.676,288.000 197.409 C 288.000 196.595,289.318 195.683,290.923 195.385 C 292.877 195.022,293.689 193.820,293.525 191.533 L 293.400 189.800 285.200 189.800 L 277.000 189.800 276.881 191.836 C 276.750 194.085,277.168 194.686,279.361 195.405 C 280.855 195.895,280.891 196.488,279.689 200.800 C 277.538 208.517,277.174 209.880,276.961 211.000 C 276.436 213.758,275.200 215.597,275.200 213.619 C 275.200 213.189,275.037 212.424,274.837 211.919 C 274.637 211.413,274.111 209.740,273.667 208.200 C 272.588 204.456,270.430 197.245,270.015 196.000 C 269.832 195.450,269.380 193.976,269.012 192.724 C 268.129 189.731,267.837 189.541,264.337 189.682 C 260.849 189.822,260.821 189.858,258.782 196.800 C 258.103 199.110,257.392 201.450,257.200 202.000 C 257.008 202.550,256.309 204.800,255.645 207.000 C 254.982 209.200,254.206 211.765,253.922 212.700 C 253.148 215.247,252.826 214.992,252.036 211.200 C 251.659 209.387,250.806 206.097,249.186 200.200 C 247.999 195.882,247.999 195.887,249.562 195.370 C 251.437 194.750,252.058 193.755,251.918 191.600 L 251.800 189.800 243.775 189.692 C 239.361 189.633,235.626 189.708,235.475 189.859 M220.758 196.031 C 224.061 198.044,224.942 200.253,224.975 206.600 C 225.028 216.765,218.274 221.675,211.314 216.531 C 210.129 215.655,209.731 215.008,208.456 211.881 C 207.267 208.965,208.022 201.458,209.805 198.467 C 211.673 195.334,217.492 194.040,220.758 196.031 M130.400 203.600 L 130.400 206.800 139.000 206.800 L 147.600 206.800 147.600 203.600 L 147.600 200.400 139.000 200.400 L 130.400 200.400 130.400 203.600 " stroke="none" fill="#27375e" fill-rule="evenodd"></path><path id="path2" d="M189.600 27.836 C 183.293 28.074,175.218 28.968,169.600 30.049 C 168.390 30.281,166.500 30.645,165.400 30.856 C 164.300 31.068,162.635 31.412,161.700 31.620 C 160.765 31.829,159.145 32.191,158.100 32.425 C 155.965 32.903,153.494 33.541,152.000 34.000 C 151.450 34.169,150.190 34.535,149.200 34.814 C 133.092 39.349,112.415 49.328,98.400 59.329 C 66.682 81.963,42.928 115.612,32.416 152.800 C 32.136 153.790,31.765 155.050,31.592 155.600 C 31.217 156.788,30.465 160.008,29.232 165.700 C 28.592 168.654,28.073 171.691,27.608 175.200 C 27.360 177.070,26.992 179.770,26.789 181.200 C 24.721 195.802,25.932 219.681,29.558 235.800 C 29.756 236.680,30.045 238.030,30.201 238.800 C 30.451 240.038,31.163 242.746,32.408 247.200 C 34.166 253.489,37.754 263.462,40.469 269.600 C 41.898 272.832,46.531 282.176,47.213 283.200 C 47.579 283.750,48.422 285.190,49.086 286.400 C 52.974 293.478,61.219 305.121,67.388 312.243 C 72.993 318.715,80.369 326.079,85.990 330.817 C 87.415 332.018,88.844 333.246,89.166 333.547 C 98.346 342.128,119.906 354.607,136.200 360.770 C 137.520 361.269,138.960 361.831,139.400 362.017 C 140.549 362.505,149.019 365.182,151.500 365.841 C 152.655 366.149,154.635 366.678,155.900 367.018 C 158.272 367.655,159.281 367.879,164.400 368.909 C 168.992 369.832,174.107 370.581,183.200 371.660 C 188.589 372.299,208.214 372.304,213.000 371.667 C 214.980 371.404,218.220 370.991,220.200 370.750 C 223.361 370.365,226.807 369.834,231.600 368.990 C 282.201 360.090,329.598 323.646,352.800 275.800 C 358.796 263.436,363.144 251.545,365.599 240.800 C 369.263 224.767,370.200 216.455,370.200 200.000 C 370.200 183.639,369.242 175.141,365.599 159.200 C 364.429 154.079,360.726 142.446,358.406 136.600 C 354.821 127.570,349.318 116.794,343.641 107.687 C 326.483 80.165,297.815 55.273,269.183 43.038 C 268.202 42.619,266.270 41.764,264.890 41.138 C 263.509 40.512,262.125 40.000,261.814 40.000 C 261.502 40.000,261.149 39.841,261.030 39.648 C 260.910 39.454,260.404 39.204,259.906 39.091 C 259.408 38.979,257.200 38.229,255.000 37.424 C 248.333 34.985,238.695 32.368,230.600 30.800 C 229.280 30.544,227.480 30.179,226.600 29.989 C 224.970 29.635,221.290 29.131,215.200 28.425 C 211.546 28.002,195.179 27.625,189.600 27.836 M79.108 175.500 C 79.909 176.204,95.600 205.164,95.600 205.939 C 95.600 207.309,96.536 206.400,97.903 203.702 C 102.707 194.225,112.597 176.100,113.297 175.491 C 114.020 174.861,114.880 174.794,120.956 174.891 L 127.800 175.000 127.920 177.546 C 128.066 180.632,127.501 181.446,124.950 181.828 L 123.192 182.092 123.296 199.527 L 123.400 216.962 125.049 217.381 C 127.723 218.061,128.051 218.539,127.917 221.563 L 127.800 224.200 118.450 224.307 C 107.975 224.428,108.000 224.434,108.000 221.770 C 108.000 218.530,109.404 217.210,112.857 217.202 C 113.451 217.201,114.021 216.922,114.157 216.567 C 114.558 215.524,114.441 190.598,114.037 191.020 C 113.838 191.229,110.707 196.980,107.080 203.800 C 99.695 217.688,99.183 218.400,96.594 218.400 C 93.014 218.400,93.525 219.080,84.589 202.400 C 81.347 196.350,78.543 191.130,78.357 190.800 C 78.168 190.466,78.058 196.130,78.109 203.595 L 78.200 216.989 80.377 217.302 C 83.547 217.758,84.059 218.376,83.917 221.577 L 83.800 224.200 74.450 224.307 C 63.975 224.428,64.000 224.434,64.000 221.770 C 64.000 218.672,65.373 217.200,68.260 217.200 L 69.200 217.200 69.200 199.645 L 69.200 182.091 67.446 181.828 C 64.688 181.414,62.768 177.366,64.398 175.402 C 65.198 174.439,77.997 174.524,79.108 175.500 M179.400 175.406 C 205.077 180.837,204.763 218.799,179.000 223.800 C 176.430 224.299,173.282 224.400,163.000 224.311 L 150.200 224.200 150.079 221.862 C 149.918 218.760,150.581 217.742,152.996 217.380 C 155.373 217.023,155.241 218.182,155.111 198.826 L 155.000 182.252 153.008 181.744 C 151.912 181.464,150.787 180.923,150.508 180.541 C 149.983 179.824,149.794 175.539,150.267 175.067 C 150.843 174.490,176.483 174.789,179.400 175.406 M165.200 199.643 L 165.200 216.485 171.300 216.329 C 183.040 216.028,188.400 210.790,188.400 199.619 C 188.400 188.188,182.684 182.800,170.558 182.800 L 165.200 182.800 165.200 199.643 M221.323 188.997 C 231.214 191.573,236.172 201.302,233.267 212.432 C 228.884 229.223,204.253 229.052,199.745 212.200 C 195.876 197.739,207.383 185.366,221.323 188.997 M322.787 189.033 C 328.863 190.838,330.463 194.508,330.771 207.356 L 331.000 216.913 332.974 217.413 C 334.059 217.689,335.184 218.238,335.474 218.633 C 336.252 219.697,336.172 223.848,335.367 224.157 C 334.445 224.511,322.687 224.443,322.117 224.081 C 321.760 223.854,321.603 220.507,321.517 211.315 C 321.405 199.364,321.366 198.811,320.557 197.729 C 318.669 195.202,314.742 195.030,311.311 197.323 L 309.400 198.600 309.293 207.853 L 309.185 217.107 311.000 217.379 C 313.419 217.742,314.082 218.759,313.921 221.862 L 313.800 224.200 304.400 224.200 L 295.000 224.200 294.879 221.862 C 294.721 218.821,295.378 217.774,297.684 217.389 C 300.057 216.992,299.987 217.329,299.994 206.308 L 300.000 196.415 299.100 196.233 C 298.605 196.132,297.718 195.949,297.128 195.824 C 295.370 195.454,294.800 194.568,294.800 192.204 C 294.800 188.663,294.564 188.800,300.661 188.800 C 306.475 188.800,308.000 189.378,308.000 191.582 C 308.000 192.654,308.362 192.614,310.022 191.358 C 313.679 188.591,318.402 187.731,322.787 189.033 M252.157 189.433 C 253.144 192.005,251.736 196.000,249.842 196.000 C 248.748 196.000,248.824 196.632,250.813 204.034 C 251.902 208.085,252.794 211.751,252.796 212.180 C 252.805 213.963,253.651 211.667,256.768 201.400 C 260.605 188.758,260.579 188.800,264.640 188.800 C 268.493 188.800,268.483 188.784,272.178 201.200 C 273.913 207.030,275.449 212.032,275.591 212.316 C 275.856 212.845,280.163 197.321,279.952 196.600 C 279.887 196.380,279.215 195.987,278.457 195.727 C 276.517 195.059,275.645 192.034,276.643 189.433 C 277.009 188.478,293.391 188.478,293.757 189.433 C 294.941 192.518,293.451 195.662,290.582 196.129 L 289.000 196.387 284.681 210.081 C 279.818 225.502,280.484 224.386,276.144 224.394 C 271.548 224.403,271.845 224.848,267.939 212.104 C 264.527 200.971,264.283 200.388,263.821 202.300 C 262.965 205.852,257.084 223.259,256.565 223.778 C 256.095 224.248,255.066 224.400,252.351 224.400 L 248.759 224.400 248.230 223.100 C 247.939 222.385,245.923 216.152,243.750 209.250 C 239.584 196.014,239.769 196.390,237.128 195.827 C 235.054 195.385,233.999 192.152,235.043 189.433 C 235.409 188.478,251.791 188.478,252.157 189.433 M212.787 196.500 C 206.940 199.452,206.939 213.752,212.785 216.700 C 219.669 220.171,225.583 214.310,224.636 204.955 C 223.843 197.114,218.757 193.486,212.787 196.500 M147.920 200.080 C 148.209 200.369,148.400 201.769,148.400 203.600 C 148.400 205.431,148.209 206.831,147.920 207.120 C 147.413 207.627,131.891 207.840,130.633 207.357 C 129.811 207.042,129.690 200.192,130.500 199.865 C 131.639 199.405,147.440 199.600,147.920 200.080 " stroke="none" fill="#fbfbf3" fill-rule="evenodd"></path><path id="path3" d="M64.398 175.402 C 62.768 177.366,64.688 181.414,67.446 181.828 L 69.200 182.091 69.200 199.645 L 69.200 217.200 68.260 217.200 C 65.373 217.200,64.000 218.672,64.000 221.770 C 64.000 224.434,63.975 224.428,74.450 224.307 L 83.800 224.200 83.917 221.577 C 84.059 218.376,83.547 217.758,80.377 217.302 L 78.200 216.989 78.109 203.595 C 78.058 196.130,78.168 190.466,78.357 190.800 C 78.543 191.130,81.347 196.350,84.589 202.400 C 93.525 219.080,93.014 218.400,96.594 218.400 C 99.183 218.400,99.695 217.688,107.080 203.800 C 110.707 196.980,113.838 191.229,114.037 191.020 C 114.441 190.598,114.558 215.524,114.157 216.567 C 114.021 216.922,113.451 217.201,112.857 217.202 C 109.404 217.210,108.000 218.530,108.000 221.770 C 108.000 224.434,107.975 224.428,118.450 224.307 L 127.800 224.200 127.917 221.563 C 128.051 218.539,127.723 218.061,125.049 217.381 L 123.400 216.962 123.296 199.527 L 123.192 182.092 124.950 181.828 C 127.501 181.446,128.066 180.632,127.920 177.546 L 127.800 175.000 120.956 174.891 C 114.880 174.794,114.020 174.861,113.297 175.491 C 112.597 176.100,102.707 194.225,97.903 203.702 C 96.536 206.400,95.600 207.309,95.600 205.939 C 95.600 205.164,79.909 176.204,79.108 175.500 C 77.997 174.524,65.198 174.439,64.398 175.402 M150.267 175.067 C 149.794 175.539,149.983 179.824,150.508 180.541 C 150.787 180.923,151.912 181.464,153.008 181.744 L 155.000 182.252 155.111 198.826 C 155.241 218.182,155.373 217.023,152.996 217.380 C 150.581 217.742,149.918 218.760,150.079 221.862 L 150.200 224.200 163.000 224.311 C 173.282 224.400,176.430 224.299,179.000 223.800 C 204.763 218.799,205.077 180.837,179.400 175.406 C 176.483 174.789,150.843 174.490,150.267 175.067 M78.506 175.700 C 79.152 176.190,80.522 178.566,84.793 186.600 C 86.989 190.733,88.470 193.473,90.472 197.108 C 91.111 198.268,92.634 201.193,93.857 203.608 C 95.864 207.571,96.800 208.823,96.800 207.547 C 96.800 207.097,98.684 203.248,100.788 199.400 C 101.389 198.300,102.835 195.600,104.000 193.400 C 105.165 191.200,106.606 188.500,107.202 187.400 C 107.798 186.300,109.322 183.420,110.589 181.000 C 113.813 174.840,113.233 175.159,120.956 175.290 L 127.400 175.400 127.517 177.400 C 127.667 179.947,127.106 180.703,124.592 181.344 L 122.600 181.852 122.600 199.582 L 122.600 217.311 124.574 217.813 C 127.077 218.448,127.667 219.248,127.517 221.800 L 127.400 223.800 118.200 223.800 L 109.000 223.800 108.896 221.600 C 108.761 218.736,108.979 218.476,112.030 217.854 L 114.600 217.330 114.705 203.174 C 114.830 186.338,115.364 186.860,109.472 198.057 C 108.240 200.398,106.800 203.098,106.272 204.057 C 105.744 205.016,104.270 207.780,102.997 210.200 C 98.947 217.899,97.893 218.856,94.782 217.667 C 93.192 217.059,93.008 216.792,88.706 208.800 C 87.936 207.370,86.527 204.760,85.575 203.000 C 82.201 196.761,80.390 193.374,79.318 191.300 C 78.721 190.145,78.090 189.200,77.916 189.200 C 77.742 189.200,77.600 195.569,77.600 203.354 L 77.600 217.508 79.833 217.787 C 82.891 218.169,83.677 219.007,83.520 221.720 L 83.400 223.800 74.200 223.800 L 65.000 223.800 64.896 221.600 C 64.766 218.846,64.959 218.565,67.410 217.929 C 70.156 217.217,69.988 218.417,69.988 199.600 C 69.988 181.234,70.054 181.836,68.000 181.411 C 65.213 180.835,63.391 177.142,65.067 175.467 C 65.580 174.954,77.802 175.166,78.506 175.700 M177.680 175.613 C 194.085 178.810,202.697 195.261,195.790 210.206 C 190.694 221.234,183.430 224.165,161.800 223.925 L 150.600 223.800 150.483 221.800 C 150.333 219.248,150.923 218.448,153.426 217.813 L 155.400 217.312 155.504 199.551 L 155.608 181.791 153.504 181.295 C 150.812 180.659,149.064 177.069,150.667 175.467 C 151.102 175.031,175.369 175.163,177.680 175.613 M164.496 199.474 L 164.600 216.600 170.400 216.718 C 183.290 216.979,188.800 211.853,188.800 199.600 C 188.800 187.515,183.883 182.704,171.296 182.474 L 164.391 182.348 164.496 199.474 M178.519 183.604 C 191.092 187.487,192.021 209.497,179.847 215.056 C 177.581 216.090,176.950 216.184,171.300 216.329 L 165.200 216.485 165.200 199.643 L 165.200 182.800 170.558 182.800 C 174.795 182.800,176.460 182.968,178.519 183.604 M211.642 189.033 C 194.347 193.684,194.965 220.698,212.453 224.449 C 222.092 226.516,230.921 221.419,233.267 212.432 C 237.194 197.388,225.923 185.193,211.642 189.033 M315.400 188.781 C 313.562 189.240,311.543 190.207,310.022 191.358 C 308.362 192.614,308.000 192.654,308.000 191.582 C 308.000 189.378,306.475 188.800,300.661 188.800 C 294.564 188.800,294.800 188.663,294.800 192.204 C 294.800 194.568,295.370 195.454,297.128 195.824 C 297.718 195.949,298.605 196.132,299.100 196.233 L 300.000 196.415 299.994 206.308 C 299.987 217.329,300.057 216.992,297.684 217.389 C 295.378 217.774,294.721 218.821,294.879 221.862 L 295.000 224.200 304.400 224.200 L 313.800 224.200 313.921 221.862 C 314.082 218.759,313.419 217.742,311.000 217.379 L 309.185 217.107 309.293 207.853 L 309.400 198.600 311.311 197.323 C 314.742 195.030,318.669 195.202,320.557 197.729 C 321.366 198.811,321.405 199.364,321.517 211.315 C 321.603 220.507,321.760 223.854,322.117 224.081 C 322.687 224.443,334.445 224.511,335.367 224.157 C 336.172 223.848,336.252 219.697,335.474 218.633 C 335.184 218.238,334.059 217.689,332.974 217.413 L 331.000 216.913 330.771 207.356 C 330.500 196.070,330.237 194.985,326.989 191.736 C 324.062 188.810,319.723 187.703,315.400 188.781 M220.291 189.363 C 231.739 191.819,237.019 204.351,231.424 215.786 C 225.697 227.493,206.831 226.975,201.330 214.960 C 194.944 201.010,205.864 186.267,220.291 189.363 M235.043 189.433 C 233.999 192.152,235.054 195.385,237.128 195.827 C 239.769 196.390,239.584 196.014,243.750 209.250 C 245.923 216.152,247.939 222.385,248.230 223.100 L 248.759 224.400 252.351 224.400 C 255.066 224.400,256.095 224.248,256.565 223.778 C 257.084 223.259,262.965 205.852,263.821 202.300 C 264.283 200.388,264.527 200.971,267.939 212.104 C 271.845 224.848,271.548 224.403,276.144 224.394 C 280.484 224.386,279.818 225.502,284.681 210.081 L 289.000 196.387 290.582 196.129 C 293.451 195.662,294.941 192.518,293.757 189.433 C 293.391 188.478,277.009 188.478,276.643 189.433 C 275.645 192.034,276.517 195.059,278.457 195.727 C 279.215 195.987,279.887 196.380,279.952 196.600 C 280.163 197.321,275.856 212.845,275.591 212.316 C 275.449 212.032,273.913 207.030,272.178 201.200 C 268.483 188.784,268.493 188.800,264.640 188.800 C 260.579 188.800,260.605 188.758,256.768 201.400 C 253.651 211.667,252.805 213.963,252.796 212.180 C 252.794 211.751,251.902 208.085,250.813 204.034 C 248.824 196.632,248.748 196.000,249.842 196.000 C 251.736 196.000,253.144 192.005,252.157 189.433 C 251.791 188.478,235.409 188.478,235.043 189.433 M321.400 189.228 C 328.628 191.140,330.362 195.014,330.386 209.300 L 330.400 217.600 331.413 217.600 C 331.970 217.600,333.059 217.864,333.832 218.188 L 335.239 218.775 335.119 221.288 L 335.000 223.800 328.800 223.800 L 322.600 223.800 322.400 211.600 C 322.179 198.140,322.115 197.781,319.641 196.115 C 316.979 194.323,311.903 195.294,309.292 198.094 C 308.397 199.055,308.386 199.188,308.492 208.190 L 308.600 217.312 310.478 217.788 C 313.299 218.504,313.656 218.948,313.518 221.564 L 313.400 223.800 304.400 223.800 L 295.400 223.800 295.283 221.800 C 295.133 219.248,295.723 218.448,298.226 217.813 L 300.200 217.312 300.306 206.677 L 300.413 196.041 298.906 195.623 C 298.078 195.393,297.203 195.203,296.962 195.202 C 295.892 195.197,295.153 193.679,295.276 191.742 L 295.400 189.800 300.842 189.689 C 306.705 189.570,306.767 189.589,307.471 191.775 C 307.991 193.389,308.416 193.419,310.232 191.968 C 313.432 189.410,317.924 188.308,321.400 189.228 M251.918 191.600 C 252.058 193.755,251.437 194.750,249.562 195.370 C 247.999 195.887,247.999 195.882,249.186 200.200 C 250.806 206.097,251.659 209.387,252.036 211.200 C 252.826 214.992,253.148 215.247,253.922 212.700 C 254.206 211.765,254.982 209.200,255.645 207.000 C 256.309 204.800,257.008 202.550,257.200 202.000 C 257.392 201.450,258.103 199.110,258.782 196.800 C 260.821 189.858,260.849 189.822,264.337 189.682 C 267.837 189.541,268.129 189.731,269.012 192.724 C 269.380 193.976,269.832 195.450,270.015 196.000 C 270.430 197.245,272.588 204.456,273.667 208.200 C 274.111 209.740,274.637 211.413,274.837 211.919 C 275.037 212.424,275.200 213.189,275.200 213.619 C 275.200 215.597,276.436 213.758,276.961 211.000 C 277.174 209.880,277.538 208.517,279.689 200.800 C 280.891 196.488,280.855 195.895,279.361 195.405 C 277.168 194.686,276.750 194.085,276.881 191.836 L 277.000 189.800 285.200 189.800 L 293.400 189.800 293.525 191.533 C 293.689 193.820,292.877 195.022,290.923 195.385 C 289.318 195.683,288.000 196.595,288.000 197.409 C 288.000 197.676,287.481 199.493,286.847 201.447 C 286.212 203.401,284.932 207.430,284.001 210.400 C 283.071 213.370,281.716 217.600,280.992 219.800 L 279.674 223.800 276.946 223.920 C 272.153 224.132,272.251 224.230,270.051 217.000 C 267.559 208.812,267.106 207.349,266.404 205.200 C 266.008 203.990,265.446 202.145,265.155 201.100 C 264.864 200.055,264.524 199.200,264.400 199.200 C 264.276 199.200,263.927 200.055,263.625 201.100 C 263.323 202.145,262.586 204.530,261.987 206.400 C 255.814 225.683,256.705 224.089,252.203 223.918 L 249.108 223.800 248.588 222.400 C 248.302 221.630,247.134 218.030,245.991 214.400 C 244.849 210.770,243.416 206.270,242.808 204.400 C 242.201 202.530,241.397 199.976,241.022 198.724 C 240.247 196.136,239.947 195.806,238.000 195.402 C 235.855 194.956,235.200 194.161,235.200 192.005 C 235.200 189.459,234.783 189.571,243.775 189.692 L 251.800 189.800 251.918 191.600 M212.200 196.170 C 208.653 198.305,206.539 207.179,208.456 211.881 C 209.731 215.008,210.129 215.655,211.314 216.531 C 215.722 219.789,221.525 218.477,223.875 213.690 C 225.968 209.429,225.266 200.009,222.661 197.404 C 220.209 194.952,215.206 194.361,212.200 196.170 M219.756 196.156 C 226.059 198.789,226.535 213.614,220.415 216.700 C 213.789 220.042,208.600 215.594,208.600 206.572 C 208.600 197.962,213.385 193.494,219.756 196.156 M130.500 199.865 C 129.690 200.192,129.811 207.042,130.633 207.357 C 131.891 207.840,147.413 207.627,147.920 207.120 C 148.209 206.831,148.400 205.431,148.400 203.600 C 148.400 201.769,148.209 200.369,147.920 200.080 C 147.440 199.600,131.639 199.405,130.500 199.865 M147.600 203.600 L 147.600 206.800 139.000 206.800 L 130.400 206.800 130.400 203.600 L 130.400 200.400 139.000 200.400 L 147.600 200.400 147.600 203.600 " stroke="none" fill="#abb0ba" fill-rule="evenodd"></path><path id="path4" d="M185.600 27.434 C 184.830 27.518,181.410 27.882,178.000 28.244 C 71.055 39.579,0.187 150.027,33.661 253.200 C 73.438 375.801,229.319 413.350,320.209 322.225 C 413.545 228.647,372.109 69.662,245.000 33.662 C 239.781 32.184,237.535 31.653,227.900 29.619 C 219.630 27.873,193.820 26.540,185.600 27.434 M215.200 28.425 C 221.290 29.131,224.970 29.635,226.600 29.989 C 227.480 30.179,229.280 30.544,230.600 30.800 C 238.695 32.368,248.333 34.985,255.000 37.424 C 257.200 38.229,259.408 38.979,259.906 39.091 C 260.404 39.204,260.910 39.454,261.030 39.648 C 261.149 39.841,261.502 40.000,261.814 40.000 C 262.125 40.000,263.509 40.512,264.890 41.138 C 266.270 41.764,268.202 42.619,269.183 43.038 C 297.815 55.273,326.483 80.165,343.641 107.687 C 347.575 113.998,349.566 117.607,352.970 124.600 C 358.719 136.406,363.191 148.659,365.599 159.200 C 367.770 168.701,368.489 172.952,369.693 183.400 C 370.372 189.291,370.362 210.768,369.678 216.800 C 368.561 226.655,367.776 231.273,365.599 240.800 C 351.132 304.119,294.973 357.843,231.600 368.990 C 226.807 369.834,223.361 370.365,220.200 370.750 C 218.220 370.991,214.980 371.404,213.000 371.667 C 208.214 372.304,188.589 372.299,183.200 371.660 C 174.107 370.581,168.992 369.832,164.400 368.909 C 159.281 367.879,158.272 367.655,155.900 367.018 C 154.635 366.678,152.655 366.149,151.500 365.841 C 149.019 365.182,140.549 362.505,139.400 362.017 C 138.960 361.831,137.520 361.269,136.200 360.770 C 119.906 354.607,98.346 342.128,89.166 333.547 C 88.844 333.246,87.415 332.018,85.990 330.817 C 80.369 326.079,72.993 318.715,67.388 312.243 C 61.219 305.121,52.974 293.478,49.086 286.400 C 48.422 285.190,47.579 283.750,47.213 283.200 C 46.531 282.176,41.898 272.832,40.469 269.600 C 37.754 263.462,34.166 253.489,32.408 247.200 C 31.163 242.746,30.451 240.038,30.201 238.800 C 30.045 238.030,29.756 236.680,29.558 235.800 C 25.932 219.681,24.721 195.802,26.789 181.200 C 26.992 179.770,27.360 177.070,27.608 175.200 C 28.073 171.691,28.592 168.654,29.232 165.700 C 30.465 160.008,31.217 156.788,31.592 155.600 C 31.765 155.050,32.136 153.790,32.416 152.800 C 42.928 115.612,66.682 81.963,98.400 59.329 C 107.360 52.935,122.783 44.539,133.200 40.385 C 138.484 38.278,145.189 35.943,149.200 34.814 C 150.190 34.535,151.450 34.169,152.000 34.000 C 153.494 33.541,155.965 32.903,158.100 32.425 C 159.145 32.191,160.765 31.829,161.700 31.620 C 162.635 31.412,164.300 31.068,165.400 30.856 C 166.500 30.645,168.390 30.281,169.600 30.049 C 181.301 27.797,203.086 27.022,215.200 28.425 " stroke="none" fill="#fc9694" fill-rule="evenodd"></path></g></svg>